ISO-10303-21;
HEADER;
/* Generated by software containing ST-Developer
 * from STEP Tools, Inc. (www.steptools.com) 
 */
/* OPTION: using custom renumber hook */

FILE_DESCRIPTION(
/* description */ ('STEP AP242 Edition 2',
'CAx-IF Rec.Pracs.---Representation and Presentation of Product Manufa
cturing Information (PMI)---4.0---2014-10-13',
'CAx-IF Rec.Pracs.---3D Tessellated Geometry---0.4---2014-09-14','2;1',
'CAx-IF Rec.Pracs.---User Defined Attributes---1.5---2016-08-15'),
/* implementation_level */ '2;1');

FILE_NAME(
/* name */ '69688ae3794afd149c086382',
/* time_stamp */ '2026-01-15T06:36:20Z',
/* author */ (''),
/* organization */ (''),
/* preprocessor_version */ 'ST-DEVELOPER v20',
/* originating_system */ 'ONSHAPE BY PTC INC, 1.209',
/* authorisation */ '  ');

FILE_SCHEMA (('AP242_MANAGED_MODEL_BASED_3D_ENGINEERING_MIM_LF { 1 0 10303 442 3 1 4 }'));
ENDSEC;

DATA;
#10=SHAPE_REPRESENTATION_RELATIONSHIP('','',#661,#11);
#11=ADVANCED_BREP_SHAPE_REPRESENTATION('',(#659),#1051);
#12=CYLINDRICAL_SURFACE('',#699,0.00168994949366116);
#13=CYLINDRICAL_SURFACE('',#700,0.00168994949366116);
#14=CYLINDRICAL_SURFACE('',#701,0.00168994949366116);
#15=CYLINDRICAL_SURFACE('',#702,0.00168994949366116);
#16=CIRCLE('',#674,0.00168994949366116);
#17=CIRCLE('',#675,0.00168994949366116);
#18=CIRCLE('',#676,0.00168994949366116);
#19=CIRCLE('',#677,0.00168994949366116);
#20=CIRCLE('',#689,0.00168994949366116);
#21=CIRCLE('',#690,0.00168994949366116);
#22=CIRCLE('',#695,0.00168994949366116);
#23=CIRCLE('',#696,0.00168994949366116);
#24=ORIENTED_EDGE('',*,*,#204,.F.);
#25=ORIENTED_EDGE('',*,*,#205,.T.);
#26=ORIENTED_EDGE('',*,*,#206,.T.);
#27=ORIENTED_EDGE('',*,*,#207,.F.);
#28=ORIENTED_EDGE('',*,*,#208,.T.);
#29=ORIENTED_EDGE('',*,*,#209,.F.);
#30=ORIENTED_EDGE('',*,*,#210,.T.);
#31=ORIENTED_EDGE('',*,*,#211,.F.);
#32=ORIENTED_EDGE('',*,*,#212,.F.);
#33=ORIENTED_EDGE('',*,*,#213,.T.);
#34=ORIENTED_EDGE('',*,*,#214,.T.);
#35=ORIENTED_EDGE('',*,*,#215,.F.);
#36=ORIENTED_EDGE('',*,*,#216,.T.);
#37=ORIENTED_EDGE('',*,*,#217,.T.);
#38=ORIENTED_EDGE('',*,*,#218,.F.);
#39=ORIENTED_EDGE('',*,*,#219,.F.);
#40=ORIENTED_EDGE('',*,*,#220,.F.);
#41=ORIENTED_EDGE('',*,*,#221,.T.);
#42=ORIENTED_EDGE('',*,*,#222,.T.);
#43=ORIENTED_EDGE('',*,*,#223,.T.);
#44=ORIENTED_EDGE('',*,*,#224,.F.);
#45=ORIENTED_EDGE('',*,*,#225,.T.);
#46=ORIENTED_EDGE('',*,*,#226,.T.);
#47=ORIENTED_EDGE('',*,*,#227,.T.);
#48=ORIENTED_EDGE('',*,*,#210,.F.);
#49=ORIENTED_EDGE('',*,*,#228,.T.);
#50=ORIENTED_EDGE('',*,*,#229,.F.);
#51=ORIENTED_EDGE('',*,*,#230,.F.);
#52=ORIENTED_EDGE('',*,*,#206,.F.);
#53=ORIENTED_EDGE('',*,*,#231,.F.);
#54=ORIENTED_EDGE('',*,*,#232,.F.);
#55=ORIENTED_EDGE('',*,*,#233,.F.);
#56=ORIENTED_EDGE('',*,*,#234,.T.);
#57=ORIENTED_EDGE('',*,*,#235,.T.);
#58=ORIENTED_EDGE('',*,*,#236,.F.);
#59=ORIENTED_EDGE('',*,*,#237,.F.);
#60=ORIENTED_EDGE('',*,*,#238,.T.);
#61=ORIENTED_EDGE('',*,*,#239,.F.);
#62=ORIENTED_EDGE('',*,*,#208,.F.);
#63=ORIENTED_EDGE('',*,*,#240,.T.);
#64=ORIENTED_EDGE('',*,*,#241,.F.);
#65=ORIENTED_EDGE('',*,*,#242,.T.);
#66=ORIENTED_EDGE('',*,*,#243,.T.);
#67=ORIENTED_EDGE('',*,*,#244,.F.);
#68=ORIENTED_EDGE('',*,*,#245,.F.);
#69=ORIENTED_EDGE('',*,*,#246,.T.);
#70=ORIENTED_EDGE('',*,*,#247,.T.);
#71=ORIENTED_EDGE('',*,*,#248,.T.);
#72=ORIENTED_EDGE('',*,*,#249,.T.);
#73=ORIENTED_EDGE('',*,*,#250,.T.);
#74=ORIENTED_EDGE('',*,*,#204,.T.);
#75=ORIENTED_EDGE('',*,*,#251,.F.);
#76=ORIENTED_EDGE('',*,*,#252,.F.);
#77=ORIENTED_EDGE('',*,*,#253,.F.);
#78=ORIENTED_EDGE('',*,*,#254,.T.);
#79=ORIENTED_EDGE('',*,*,#255,.T.);
#80=ORIENTED_EDGE('',*,*,#256,.F.);
#81=ORIENTED_EDGE('',*,*,#257,.T.);
#82=ORIENTED_EDGE('',*,*,#258,.T.);
#83=ORIENTED_EDGE('',*,*,#259,.F.);
#84=ORIENTED_EDGE('',*,*,#240,.F.);
#85=ORIENTED_EDGE('',*,*,#207,.T.);
#86=ORIENTED_EDGE('',*,*,#230,.T.);
#87=ORIENTED_EDGE('',*,*,#260,.F.);
#88=ORIENTED_EDGE('',*,*,#212,.T.);
#89=ORIENTED_EDGE('',*,*,#261,.F.);
#90=ORIENTED_EDGE('',*,*,#238,.F.);
#91=ORIENTED_EDGE('',*,*,#261,.T.);
#92=ORIENTED_EDGE('',*,*,#215,.T.);
#93=ORIENTED_EDGE('',*,*,#262,.T.);
#94=ORIENTED_EDGE('',*,*,#209,.T.);
#95=ORIENTED_EDGE('',*,*,#239,.T.);
#96=ORIENTED_EDGE('',*,*,#262,.F.);
#97=ORIENTED_EDGE('',*,*,#214,.F.);
#98=ORIENTED_EDGE('',*,*,#263,.T.);
#99=ORIENTED_EDGE('',*,*,#228,.F.);
#100=ORIENTED_EDGE('',*,*,#264,.T.);
#101=ORIENTED_EDGE('',*,*,#265,.T.);
#102=ORIENTED_EDGE('',*,*,#266,.F.);
#103=ORIENTED_EDGE('',*,*,#267,.T.);
#104=ORIENTED_EDGE('',*,*,#268,.F.);
#105=ORIENTED_EDGE('',*,*,#269,.T.);
#106=ORIENTED_EDGE('',*,*,#270,.T.);
#107=ORIENTED_EDGE('',*,*,#271,.T.);
#108=ORIENTED_EDGE('',*,*,#222,.F.);
#109=ORIENTED_EDGE('',*,*,#272,.T.);
#110=ORIENTED_EDGE('',*,*,#264,.F.);
#111=ORIENTED_EDGE('',*,*,#273,.T.);
#112=ORIENTED_EDGE('',*,*,#245,.T.);
#113=ORIENTED_EDGE('',*,*,#274,.T.);
#114=ORIENTED_EDGE('',*,*,#268,.T.);
#115=ORIENTED_EDGE('',*,*,#275,.T.);
#116=ORIENTED_EDGE('',*,*,#213,.F.);
#117=ORIENTED_EDGE('',*,*,#260,.T.);
#118=ORIENTED_EDGE('',*,*,#229,.T.);
#119=ORIENTED_EDGE('',*,*,#263,.F.);
#120=ORIENTED_EDGE('',*,*,#241,.T.);
#121=ORIENTED_EDGE('',*,*,#276,.T.);
#122=ORIENTED_EDGE('',*,*,#257,.F.);
#123=ORIENTED_EDGE('',*,*,#277,.F.);
#124=ORIENTED_EDGE('',*,*,#277,.T.);
#125=ORIENTED_EDGE('',*,*,#256,.T.);
#126=ORIENTED_EDGE('',*,*,#278,.F.);
#127=ORIENTED_EDGE('',*,*,#242,.F.);
#128=ORIENTED_EDGE('',*,*,#278,.T.);
#129=ORIENTED_EDGE('',*,*,#259,.T.);
#130=ORIENTED_EDGE('',*,*,#279,.F.);
#131=ORIENTED_EDGE('',*,*,#243,.F.);
#132=ORIENTED_EDGE('',*,*,#244,.T.);
#133=ORIENTED_EDGE('',*,*,#279,.T.);
#134=ORIENTED_EDGE('',*,*,#258,.F.);
#135=ORIENTED_EDGE('',*,*,#276,.F.);
#136=ORIENTED_EDGE('',*,*,#280,.T.);
#137=ORIENTED_EDGE('',*,*,#234,.F.);
#138=ORIENTED_EDGE('',*,*,#281,.F.);
#139=ORIENTED_EDGE('',*,*,#217,.F.);
#140=ORIENTED_EDGE('',*,*,#218,.T.);
#141=ORIENTED_EDGE('',*,*,#281,.T.);
#142=ORIENTED_EDGE('',*,*,#237,.T.);
#143=ORIENTED_EDGE('',*,*,#282,.F.);
#144=ORIENTED_EDGE('',*,*,#219,.T.);
#145=ORIENTED_EDGE('',*,*,#282,.T.);
#146=ORIENTED_EDGE('',*,*,#236,.T.);
#147=ORIENTED_EDGE('',*,*,#283,.F.);
#148=ORIENTED_EDGE('',*,*,#283,.T.);
#149=ORIENTED_EDGE('',*,*,#235,.F.);
#150=ORIENTED_EDGE('',*,*,#280,.F.);
#151=ORIENTED_EDGE('',*,*,#216,.F.);
#152=ORIENTED_EDGE('',*,*,#284,.F.);
#153=ORIENTED_EDGE('',*,*,#251,.T.);
#154=ORIENTED_EDGE('',*,*,#211,.T.);
#155=ORIENTED_EDGE('',*,*,#227,.F.);
#156=ORIENTED_EDGE('',*,*,#270,.F.);
#157=ORIENTED_EDGE('',*,*,#285,.T.);
#158=ORIENTED_EDGE('',*,*,#254,.F.);
#159=ORIENTED_EDGE('',*,*,#286,.T.);
#160=ORIENTED_EDGE('',*,*,#224,.T.);
#161=ORIENTED_EDGE('',*,*,#287,.T.);
#162=ORIENTED_EDGE('',*,*,#284,.T.);
#163=ORIENTED_EDGE('',*,*,#226,.F.);
#164=ORIENTED_EDGE('',*,*,#288,.F.);
#165=ORIENTED_EDGE('',*,*,#252,.T.);
#166=ORIENTED_EDGE('',*,*,#253,.T.);
#167=ORIENTED_EDGE('',*,*,#288,.T.);
#168=ORIENTED_EDGE('',*,*,#225,.F.);
#169=ORIENTED_EDGE('',*,*,#286,.F.);
#170=ORIENTED_EDGE('',*,*,#250,.F.);
#171=ORIENTED_EDGE('',*,*,#289,.T.);
#172=ORIENTED_EDGE('',*,*,#231,.T.);
#173=ORIENTED_EDGE('',*,*,#205,.F.);
#174=ORIENTED_EDGE('',*,*,#266,.T.);
#175=ORIENTED_EDGE('',*,*,#290,.T.);
#176=ORIENTED_EDGE('',*,*,#220,.T.);
#177=ORIENTED_EDGE('',*,*,#291,.F.);
#178=ORIENTED_EDGE('',*,*,#247,.F.);
#179=ORIENTED_EDGE('',*,*,#292,.T.);
#180=ORIENTED_EDGE('',*,*,#289,.F.);
#181=ORIENTED_EDGE('',*,*,#249,.F.);
#182=ORIENTED_EDGE('',*,*,#293,.T.);
#183=ORIENTED_EDGE('',*,*,#232,.T.);
#184=ORIENTED_EDGE('',*,*,#293,.F.);
#185=ORIENTED_EDGE('',*,*,#248,.F.);
#186=ORIENTED_EDGE('',*,*,#291,.T.);
#187=ORIENTED_EDGE('',*,*,#233,.T.);
#188=ORIENTED_EDGE('',*,*,#290,.F.);
#189=ORIENTED_EDGE('',*,*,#265,.F.);
#190=ORIENTED_EDGE('',*,*,#272,.F.);
#191=ORIENTED_EDGE('',*,*,#221,.F.);
#192=ORIENTED_EDGE('',*,*,#292,.F.);
#193=ORIENTED_EDGE('',*,*,#246,.F.);
#194=ORIENTED_EDGE('',*,*,#273,.F.);
#195=ORIENTED_EDGE('',*,*,#267,.F.);
#196=ORIENTED_EDGE('',*,*,#274,.F.);
#197=ORIENTED_EDGE('',*,*,#255,.F.);
#198=ORIENTED_EDGE('',*,*,#285,.F.);
#199=ORIENTED_EDGE('',*,*,#269,.F.);
#200=ORIENTED_EDGE('',*,*,#275,.F.);
#201=ORIENTED_EDGE('',*,*,#271,.F.);
#202=ORIENTED_EDGE('',*,*,#287,.F.);
#203=ORIENTED_EDGE('',*,*,#223,.F.);
#204=EDGE_CURVE('',#294,#295,#354,.T.);
#205=EDGE_CURVE('',#294,#296,#355,.T.);
#206=EDGE_CURVE('',#296,#297,#356,.T.);
#207=EDGE_CURVE('',#298,#297,#357,.T.);
#208=EDGE_CURVE('',#298,#299,#358,.T.);
#209=EDGE_CURVE('',#300,#299,#359,.T.);
#210=EDGE_CURVE('',#300,#301,#360,.T.);
#211=EDGE_CURVE('',#295,#301,#361,.T.);
#212=EDGE_CURVE('',#302,#303,#362,.T.);
#213=EDGE_CURVE('',#302,#304,#363,.T.);
#214=EDGE_CURVE('',#304,#305,#364,.T.);
#215=EDGE_CURVE('',#303,#305,#365,.T.);
#216=EDGE_CURVE('',#306,#307,#366,.T.);
#217=EDGE_CURVE('',#307,#308,#367,.T.);
#218=EDGE_CURVE('',#309,#308,#368,.T.);
#219=EDGE_CURVE('',#306,#309,#369,.T.);
#220=EDGE_CURVE('',#310,#311,#370,.T.);
#221=EDGE_CURVE('',#310,#312,#371,.T.);
#222=EDGE_CURVE('',#312,#313,#372,.T.);
#223=EDGE_CURVE('',#313,#314,#373,.T.);
#224=EDGE_CURVE('',#315,#314,#374,.T.);
#225=EDGE_CURVE('',#315,#316,#375,.T.);
#226=EDGE_CURVE('',#316,#317,#376,.T.);
#227=EDGE_CURVE('',#317,#301,#377,.T.);
#228=EDGE_CURVE('',#300,#318,#378,.T.);
#229=EDGE_CURVE('',#319,#318,#379,.T.);
#230=EDGE_CURVE('',#297,#319,#380,.T.);
#231=EDGE_CURVE('',#320,#296,#381,.T.);
#232=EDGE_CURVE('',#321,#320,#382,.T.);
#233=EDGE_CURVE('',#311,#321,#383,.T.);
#234=EDGE_CURVE('',#322,#323,#384,.T.);
#235=EDGE_CURVE('',#323,#324,#385,.T.);
#236=EDGE_CURVE('',#325,#324,#386,.T.);
#237=EDGE_CURVE('',#322,#325,#387,.T.);
#238=EDGE_CURVE('',#326,#327,#388,.T.);
#239=EDGE_CURVE('',#299,#327,#389,.T.);
#240=EDGE_CURVE('',#298,#326,#390,.T.);
#241=EDGE_CURVE('',#328,#329,#391,.T.);
#242=EDGE_CURVE('',#328,#330,#392,.T.);
#243=EDGE_CURVE('',#330,#331,#393,.T.);
#244=EDGE_CURVE('',#329,#331,#394,.T.);
#245=EDGE_CURVE('',#332,#333,#395,.T.);
#246=EDGE_CURVE('',#332,#334,#396,.F.);
#247=EDGE_CURVE('',#334,#335,#397,.T.);
#248=EDGE_CURVE('',#335,#336,#398,.T.);
#249=EDGE_CURVE('',#336,#337,#399,.T.);
#250=EDGE_CURVE('',#337,#294,#400,.T.);
#251=EDGE_CURVE('',#338,#295,#401,.T.);
#252=EDGE_CURVE('',#339,#338,#402,.T.);
#253=EDGE_CURVE('',#340,#339,#403,.T.);
#254=EDGE_CURVE('',#340,#341,#404,.T.);
#255=EDGE_CURVE('',#341,#333,#405,.F.);
#256=EDGE_CURVE('',#342,#343,#406,.T.);
#257=EDGE_CURVE('',#342,#344,#407,.T.);
#258=EDGE_CURVE('',#344,#345,#408,.T.);
#259=EDGE_CURVE('',#343,#345,#409,.T.);
#260=EDGE_CURVE('',#302,#319,#410,.T.);
#261=EDGE_CURVE('',#326,#303,#411,.T.);
#262=EDGE_CURVE('',#305,#327,#412,.T.);
#263=EDGE_CURVE('',#304,#318,#413,.T.);
#264=EDGE_CURVE('',#346,#347,#414,.T.);
#265=EDGE_CURVE('',#347,#348,#415,.F.);
#266=EDGE_CURVE('',#349,#348,#416,.T.);
#267=EDGE_CURVE('',#349,#346,#417,.T.);
#268=EDGE_CURVE('',#350,#351,#418,.T.);
#269=EDGE_CURVE('',#350,#352,#419,.T.);
#270=EDGE_CURVE('',#352,#353,#420,.T.);
#271=EDGE_CURVE('',#353,#351,#421,.F.);
#272=EDGE_CURVE('',#312,#347,#16,.F.);
#273=EDGE_CURVE('',#346,#332,#17,.F.);
#274=EDGE_CURVE('',#333,#350,#18,.F.);
#275=EDGE_CURVE('',#351,#313,#19,.F.);
#276=EDGE_CURVE('',#329,#344,#422,.T.);
#277=EDGE_CURVE('',#328,#342,#423,.T.);
#278=EDGE_CURVE('',#330,#343,#424,.T.);
#279=EDGE_CURVE('',#331,#345,#425,.T.);
#280=EDGE_CURVE('',#307,#323,#426,.T.);
#281=EDGE_CURVE('',#308,#322,#427,.T.);
#282=EDGE_CURVE('',#309,#325,#428,.T.);
#283=EDGE_CURVE('',#306,#324,#429,.T.);
#284=EDGE_CURVE('',#338,#317,#430,.T.);
#285=EDGE_CURVE('',#352,#341,#20,.T.);
#286=EDGE_CURVE('',#340,#315,#431,.T.);
#287=EDGE_CURVE('',#314,#353,#21,.T.);
#288=EDGE_CURVE('',#339,#316,#432,.T.);
#289=EDGE_CURVE('',#337,#320,#433,.T.);
#290=EDGE_CURVE('',#348,#310,#22,.T.);
#291=EDGE_CURVE('',#335,#311,#434,.T.);
#292=EDGE_CURVE('',#334,#349,#23,.T.);
#293=EDGE_CURVE('',#336,#321,#435,.T.);
#294=VERTEX_POINT('',#870);
#295=VERTEX_POINT('',#871);
#296=VERTEX_POINT('',#873);
#297=VERTEX_POINT('',#875);
#298=VERTEX_POINT('',#877);
#299=VERTEX_POINT('',#879);
#300=VERTEX_POINT('',#881);
#301=VERTEX_POINT('',#883);
#302=VERTEX_POINT('',#887);
#303=VERTEX_POINT('',#888);
#304=VERTEX_POINT('',#890);
#305=VERTEX_POINT('',#892);
#306=VERTEX_POINT('',#895);
#307=VERTEX_POINT('',#896);
#308=VERTEX_POINT('',#898);
#309=VERTEX_POINT('',#900);
#310=VERTEX_POINT('',#904);
#311=VERTEX_POINT('',#905);
#312=VERTEX_POINT('',#907);
#313=VERTEX_POINT('',#909);
#314=VERTEX_POINT('',#911);
#315=VERTEX_POINT('',#913);
#316=VERTEX_POINT('',#915);
#317=VERTEX_POINT('',#917);
#318=VERTEX_POINT('',#920);
#319=VERTEX_POINT('',#922);
#320=VERTEX_POINT('',#925);
#321=VERTEX_POINT('',#927);
#322=VERTEX_POINT('',#930);
#323=VERTEX_POINT('',#931);
#324=VERTEX_POINT('',#933);
#325=VERTEX_POINT('',#935);
#326=VERTEX_POINT('',#939);
#327=VERTEX_POINT('',#940);
#328=VERTEX_POINT('',#944);
#329=VERTEX_POINT('',#945);
#330=VERTEX_POINT('',#947);
#331=VERTEX_POINT('',#949);
#332=VERTEX_POINT('',#953);
#333=VERTEX_POINT('',#954);
#334=VERTEX_POINT('',#956);
#335=VERTEX_POINT('',#958);
#336=VERTEX_POINT('',#960);
#337=VERTEX_POINT('',#962);
#338=VERTEX_POINT('',#965);
#339=VERTEX_POINT('',#967);
#340=VERTEX_POINT('',#969);
#341=VERTEX_POINT('',#971);
#342=VERTEX_POINT('',#974);
#343=VERTEX_POINT('',#975);
#344=VERTEX_POINT('',#977);
#345=VERTEX_POINT('',#979);
#346=VERTEX_POINT('',#990);
#347=VERTEX_POINT('',#991);
#348=VERTEX_POINT('',#993);
#349=VERTEX_POINT('',#995);
#350=VERTEX_POINT('',#999);
#351=VERTEX_POINT('',#1000);
#352=VERTEX_POINT('',#1002);
#353=VERTEX_POINT('',#1004);
#354=LINE('',#869,#436);
#355=LINE('',#872,#437);
#356=LINE('',#874,#438);
#357=LINE('',#876,#439);
#358=LINE('',#878,#440);
#359=LINE('',#880,#441);
#360=LINE('',#882,#442);
#361=LINE('',#884,#443);
#362=LINE('',#886,#444);
#363=LINE('',#889,#445);
#364=LINE('',#891,#446);
#365=LINE('',#893,#447);
#366=LINE('',#894,#448);
#367=LINE('',#897,#449);
#368=LINE('',#899,#450);
#369=LINE('',#901,#451);
#370=LINE('',#903,#452);
#371=LINE('',#906,#453);
#372=LINE('',#908,#454);
#373=LINE('',#910,#455);
#374=LINE('',#912,#456);
#375=LINE('',#914,#457);
#376=LINE('',#916,#458);
#377=LINE('',#918,#459);
#378=LINE('',#919,#460);
#379=LINE('',#921,#461);
#380=LINE('',#923,#462);
#381=LINE('',#924,#463);
#382=LINE('',#926,#464);
#383=LINE('',#928,#465);
#384=LINE('',#929,#466);
#385=LINE('',#932,#467);
#386=LINE('',#934,#468);
#387=LINE('',#936,#469);
#388=LINE('',#938,#470);
#389=LINE('',#941,#471);
#390=LINE('',#942,#472);
#391=LINE('',#943,#473);
#392=LINE('',#946,#474);
#393=LINE('',#948,#475);
#394=LINE('',#950,#476);
#395=LINE('',#952,#477);
#396=LINE('',#955,#478);
#397=LINE('',#957,#479);
#398=LINE('',#959,#480);
#399=LINE('',#961,#481);
#400=LINE('',#963,#482);
#401=LINE('',#964,#483);
#402=LINE('',#966,#484);
#403=LINE('',#968,#485);
#404=LINE('',#970,#486);
#405=LINE('',#972,#487);
#406=LINE('',#973,#488);
#407=LINE('',#976,#489);
#408=LINE('',#978,#490);
#409=LINE('',#980,#491);
#410=LINE('',#982,#492);
#411=LINE('',#983,#493);
#412=LINE('',#985,#494);
#413=LINE('',#987,#495);
#414=LINE('',#989,#496);
#415=LINE('',#992,#497);
#416=LINE('',#994,#498);
#417=LINE('',#996,#499);
#418=LINE('',#998,#500);
#419=LINE('',#1001,#501);
#420=LINE('',#1003,#502);
#421=LINE('',#1005,#503);
#422=LINE('',#1013,#504);
#423=LINE('',#1014,#505);
#424=LINE('',#1016,#506);
#425=LINE('',#1018,#507);
#426=LINE('',#1021,#508);
#427=LINE('',#1022,#509);
#428=LINE('',#1024,#510);
#429=LINE('',#1026,#511);
#430=LINE('',#1029,#512);
#431=LINE('',#1032,#513);
#432=LINE('',#1035,#514);
#433=LINE('',#1038,#515);
#434=LINE('',#1041,#516);
#435=LINE('',#1044,#517);
#436=VECTOR('',#707,1.);
#437=VECTOR('',#708,1.);
#438=VECTOR('',#709,1.);
#439=VECTOR('',#710,1.);
#440=VECTOR('',#711,1.);
#441=VECTOR('',#712,1.);
#442=VECTOR('',#713,1.);
#443=VECTOR('',#714,1.);
#444=VECTOR('',#717,1.);
#445=VECTOR('',#718,1.);
#446=VECTOR('',#719,1.);
#447=VECTOR('',#720,1.);
#448=VECTOR('',#721,1.);
#449=VECTOR('',#722,1.);
#450=VECTOR('',#723,1.);
#451=VECTOR('',#724,1.);
#452=VECTOR('',#727,1.);
#453=VECTOR('',#728,1.);
#454=VECTOR('',#729,1.);
#455=VECTOR('',#730,1.);
#456=VECTOR('',#731,1.);
#457=VECTOR('',#732,1.);
#458=VECTOR('',#733,1.);
#459=VECTOR('',#734,1.);
#460=VECTOR('',#735,1.);
#461=VECTOR('',#736,1.);
#462=VECTOR('',#737,1.);
#463=VECTOR('',#738,1.);
#464=VECTOR('',#739,1.);
#465=VECTOR('',#740,1.);
#466=VECTOR('',#741,1.);
#467=VECTOR('',#742,1.);
#468=VECTOR('',#743,1.);
#469=VECTOR('',#744,1.);
#470=VECTOR('',#747,1.);
#471=VECTOR('',#748,1.);
#472=VECTOR('',#749,1.);
#473=VECTOR('',#750,1.);
#474=VECTOR('',#751,1.);
#475=VECTOR('',#752,1.);
#476=VECTOR('',#753,1.);
#477=VECTOR('',#756,1.);
#478=VECTOR('',#757,1.);
#479=VECTOR('',#758,1.);
#480=VECTOR('',#759,1.);
#481=VECTOR('',#760,1.);
#482=VECTOR('',#761,1.);
#483=VECTOR('',#762,1.);
#484=VECTOR('',#763,1.);
#485=VECTOR('',#764,1.);
#486=VECTOR('',#765,1.);
#487=VECTOR('',#766,1.);
#488=VECTOR('',#767,1.);
#489=VECTOR('',#768,1.);
#490=VECTOR('',#769,1.);
#491=VECTOR('',#770,1.);
#492=VECTOR('',#773,1.);
#493=VECTOR('',#774,1.);
#494=VECTOR('',#777,1.);
#495=VECTOR('',#780,1.);
#496=VECTOR('',#783,1.);
#497=VECTOR('',#784,1.);
#498=VECTOR('',#785,1.);
#499=VECTOR('',#786,1.);
#500=VECTOR('',#789,1.);
#501=VECTOR('',#790,1.);
#502=VECTOR('',#791,1.);
#503=VECTOR('',#792,1.);
#504=VECTOR('',#807,1.);
#505=VECTOR('',#808,1.);
#506=VECTOR('',#811,1.);
#507=VECTOR('',#814,1.);
#508=VECTOR('',#819,1.);
#509=VECTOR('',#820,1.);
#510=VECTOR('',#823,1.);
#511=VECTOR('',#826,1.);
#512=VECTOR('',#831,1.);
#513=VECTOR('',#836,1.);
#514=VECTOR('',#841,1.);
#515=VECTOR('',#846,1.);
#516=VECTOR('',#851,1.);
#517=VECTOR('',#856,1.);
#518=EDGE_LOOP('',(#24,#25,#26,#27,#28,#29,#30,#31));
#519=EDGE_LOOP('',(#32,#33,#34,#35));
#520=EDGE_LOOP('',(#36,#37,#38,#39));
#521=EDGE_LOOP('',(#40,#41,#42,#43,#44,#45,#46,#47,#48,#49,#50,#51,#52,
#53,#54,#55));
#522=EDGE_LOOP('',(#56,#57,#58,#59));
#523=EDGE_LOOP('',(#60,#61,#62,#63));
#524=EDGE_LOOP('',(#64,#65,#66,#67));
#525=EDGE_LOOP('',(#68,#69,#70,#71,#72,#73,#74,#75,#76,#77,#78,#79));
#526=EDGE_LOOP('',(#80,#81,#82,#83));
#527=EDGE_LOOP('',(#84,#85,#86,#87,#88,#89));
#528=EDGE_LOOP('',(#90,#91,#92,#93));
#529=EDGE_LOOP('',(#94,#95,#96,#97,#98,#99));
#530=EDGE_LOOP('',(#100,#101,#102,#103));
#531=EDGE_LOOP('',(#104,#105,#106,#107));
#532=EDGE_LOOP('',(#108,#109,#110,#111,#112,#113,#114,#115));
#533=EDGE_LOOP('',(#116,#117,#118,#119));
#534=EDGE_LOOP('',(#120,#121,#122,#123));
#535=EDGE_LOOP('',(#124,#125,#126,#127));
#536=EDGE_LOOP('',(#128,#129,#130,#131));
#537=EDGE_LOOP('',(#132,#133,#134,#135));
#538=EDGE_LOOP('',(#136,#137,#138,#139));
#539=EDGE_LOOP('',(#140,#141,#142,#143));
#540=EDGE_LOOP('',(#144,#145,#146,#147));
#541=EDGE_LOOP('',(#148,#149,#150,#151));
#542=EDGE_LOOP('',(#152,#153,#154,#155));
#543=EDGE_LOOP('',(#156,#157,#158,#159,#160,#161));
#544=EDGE_LOOP('',(#162,#163,#164,#165));
#545=EDGE_LOOP('',(#166,#167,#168,#169));
#546=EDGE_LOOP('',(#170,#171,#172,#173));
#547=EDGE_LOOP('',(#174,#175,#176,#177,#178,#179));
#548=EDGE_LOOP('',(#180,#181,#182,#183));
#549=EDGE_LOOP('',(#184,#185,#186,#187));
#550=EDGE_LOOP('',(#188,#189,#190,#191));
#551=EDGE_LOOP('',(#192,#193,#194,#195));
#552=EDGE_LOOP('',(#196,#197,#198,#199));
#553=EDGE_LOOP('',(#200,#201,#202,#203));
#554=FACE_BOUND('',#518,.T.);
#555=FACE_BOUND('',#519,.T.);
#556=FACE_BOUND('',#520,.T.);
#557=FACE_BOUND('',#521,.T.);
#558=FACE_BOUND('',#522,.T.);
#559=FACE_BOUND('',#523,.T.);
#560=FACE_BOUND('',#524,.T.);
#561=FACE_BOUND('',#525,.T.);
#562=FACE_BOUND('',#526,.T.);
#563=FACE_BOUND('',#527,.T.);
#564=FACE_BOUND('',#528,.T.);
#565=FACE_BOUND('',#529,.T.);
#566=FACE_BOUND('',#530,.T.);
#567=FACE_BOUND('',#531,.T.);
#568=FACE_BOUND('',#532,.T.);
#569=FACE_BOUND('',#533,.T.);
#570=FACE_BOUND('',#534,.T.);
#571=FACE_BOUND('',#535,.T.);
#572=FACE_BOUND('',#536,.T.);
#573=FACE_BOUND('',#537,.T.);
#574=FACE_BOUND('',#538,.T.);
#575=FACE_BOUND('',#539,.T.);
#576=FACE_BOUND('',#540,.T.);
#577=FACE_BOUND('',#541,.T.);
#578=FACE_BOUND('',#542,.T.);
#579=FACE_BOUND('',#543,.T.);
#580=FACE_BOUND('',#544,.T.);
#581=FACE_BOUND('',#545,.T.);
#582=FACE_BOUND('',#546,.T.);
#583=FACE_BOUND('',#547,.T.);
#584=FACE_BOUND('',#548,.T.);
#585=FACE_BOUND('',#549,.T.);
#586=FACE_BOUND('',#550,.T.);
#587=FACE_BOUND('',#551,.T.);
#588=FACE_BOUND('',#552,.T.);
#589=FACE_BOUND('',#553,.T.);
#590=PLANE('',#663);
#591=PLANE('',#664);
#592=PLANE('',#665);
#593=PLANE('',#666);
#594=PLANE('',#667);
#595=PLANE('',#668);
#596=PLANE('',#669);
#597=PLANE('',#670);
#598=PLANE('',#671);
#599=PLANE('',#672);
#600=PLANE('',#673);
#601=PLANE('',#678);
#602=PLANE('',#679);
#603=PLANE('',#680);
#604=PLANE('',#681);
#605=PLANE('',#682);
#606=PLANE('',#683);
#607=PLANE('',#684);
#608=PLANE('',#685);
#609=PLANE('',#686);
#610=PLANE('',#687);
#611=PLANE('',#688);
#612=PLANE('',#691);
#613=PLANE('',#692);
#614=PLANE('',#693);
#615=PLANE('',#694);
#616=PLANE('',#697);
#617=PLANE('',#698);
#618=ADVANCED_FACE('',(#554),#590,.T.);
#619=ADVANCED_FACE('',(#555,#556),#591,.T.);
#620=ADVANCED_FACE('',(#557,#558),#592,.F.);
#621=ADVANCED_FACE('',(#559,#560),#593,.F.);
#622=ADVANCED_FACE('',(#561,#562),#594,.T.);
#623=ADVANCED_FACE('',(#563),#595,.T.);
#624=ADVANCED_FACE('',(#564),#596,.T.);
#625=ADVANCED_FACE('',(#565),#597,.T.);
#626=ADVANCED_FACE('',(#566),#598,.F.);
#627=ADVANCED_FACE('',(#567),#599,.F.);
#628=ADVANCED_FACE('',(#568),#600,.F.);
#629=ADVANCED_FACE('',(#569),#601,.T.);
#630=ADVANCED_FACE('',(#570),#602,.T.);
#631=ADVANCED_FACE('',(#571),#603,.F.);
#632=ADVANCED_FACE('',(#572),#604,.F.);
#633=ADVANCED_FACE('',(#573),#605,.T.);
#634=ADVANCED_FACE('',(#574),#606,.T.);
#635=ADVANCED_FACE('',(#575),#607,.F.);
#636=ADVANCED_FACE('',(#576),#608,.F.);
#637=ADVANCED_FACE('',(#577),#609,.T.);
#638=ADVANCED_FACE('',(#578),#610,.F.);
#639=ADVANCED_FACE('',(#579),#611,.T.);
#640=ADVANCED_FACE('',(#580),#612,.F.);
#641=ADVANCED_FACE('',(#581),#613,.T.);
#642=ADVANCED_FACE('',(#582),#614,.T.);
#643=ADVANCED_FACE('',(#583),#615,.T.);
#644=ADVANCED_FACE('',(#584),#616,.T.);
#645=ADVANCED_FACE('',(#585),#617,.T.);
#646=ADVANCED_FACE('',(#586),#12,.T.);
#647=ADVANCED_FACE('',(#587),#13,.T.);
#648=ADVANCED_FACE('',(#588),#14,.T.);
#649=ADVANCED_FACE('',(#589),#15,.T.);
#650=CLOSED_SHELL('',(#618,#619,#620,#621,#622,#623,#624,#625,#626,#627,
#628,#629,#630,#631,#632,#633,#634,#635,#636,#637,#638,#639,#640,#641,#642,
#643,#644,#645,#646,#647,#648,#649));
#651=STYLED_ITEM('',(#652),#659);
#652=PRESENTATION_STYLE_ASSIGNMENT((#653));
#653=SURFACE_STYLE_USAGE(.BOTH.,#654);
#654=SURFACE_SIDE_STYLE('',(#655));
#655=SURFACE_STYLE_FILL_AREA(#656);
#656=FILL_AREA_STYLE('',(#657));
#657=FILL_AREA_STYLE_COLOUR('',#658);
#658=COLOUR_RGB('',0.231372549019608,0.380392156862745,0.705882352941177);
#659=MANIFOLD_SOLID_BREP('Part 2',#650);
#660=SHAPE_DEFINITION_REPRESENTATION(#1056,#661);
#661=SHAPE_REPRESENTATION('Part 2',(#662),#1051);
#662=AXIS2_PLACEMENT_3D('',#867,#703,#704);
#663=AXIS2_PLACEMENT_3D('',#868,#705,#706);
#664=AXIS2_PLACEMENT_3D('',#885,#715,#716);
#665=AXIS2_PLACEMENT_3D('',#902,#725,#726);
#666=AXIS2_PLACEMENT_3D('',#937,#745,#746);
#667=AXIS2_PLACEMENT_3D('',#951,#754,#755);
#668=AXIS2_PLACEMENT_3D('',#981,#771,#772);
#669=AXIS2_PLACEMENT_3D('',#984,#775,#776);
#670=AXIS2_PLACEMENT_3D('',#986,#778,#779);
#671=AXIS2_PLACEMENT_3D('',#988,#781,#782);
#672=AXIS2_PLACEMENT_3D('',#997,#787,#788);
#673=AXIS2_PLACEMENT_3D('',#1006,#793,#794);
#674=AXIS2_PLACEMENT_3D('',#1007,#795,#796);
#675=AXIS2_PLACEMENT_3D('',#1008,#797,#798);
#676=AXIS2_PLACEMENT_3D('',#1009,#799,#800);
#677=AXIS2_PLACEMENT_3D('',#1010,#801,#802);
#678=AXIS2_PLACEMENT_3D('',#1011,#803,#804);
#679=AXIS2_PLACEMENT_3D('',#1012,#805,#806);
#680=AXIS2_PLACEMENT_3D('',#1015,#809,#810);
#681=AXIS2_PLACEMENT_3D('',#1017,#812,#813);
#682=AXIS2_PLACEMENT_3D('',#1019,#815,#816);
#683=AXIS2_PLACEMENT_3D('',#1020,#817,#818);
#684=AXIS2_PLACEMENT_3D('',#1023,#821,#822);
#685=AXIS2_PLACEMENT_3D('',#1025,#824,#825);
#686=AXIS2_PLACEMENT_3D('',#1027,#827,#828);
#687=AXIS2_PLACEMENT_3D('',#1028,#829,#830);
#688=AXIS2_PLACEMENT_3D('',#1030,#832,#833);
#689=AXIS2_PLACEMENT_3D('',#1031,#834,#835);
#690=AXIS2_PLACEMENT_3D('',#1033,#837,#838);
#691=AXIS2_PLACEMENT_3D('',#1034,#839,#840);
#692=AXIS2_PLACEMENT_3D('',#1036,#842,#843);
#693=AXIS2_PLACEMENT_3D('',#1037,#844,#845);
#694=AXIS2_PLACEMENT_3D('',#1039,#847,#848);
#695=AXIS2_PLACEMENT_3D('',#1040,#849,#850);
#696=AXIS2_PLACEMENT_3D('',#1042,#852,#853);
#697=AXIS2_PLACEMENT_3D('',#1043,#854,#855);
#698=AXIS2_PLACEMENT_3D('',#1045,#857,#858);
#699=AXIS2_PLACEMENT_3D('',#1046,#859,#860);
#700=AXIS2_PLACEMENT_3D('',#1047,#861,#862);
#701=AXIS2_PLACEMENT_3D('',#1048,#863,#864);
#702=AXIS2_PLACEMENT_3D('',#1049,#865,#866);
#703=DIRECTION('',(0.,0.,1.));
#704=DIRECTION('',(1.,0.,0.));
#705=DIRECTION('',(0.,0.,1.));
#706=DIRECTION('',(1.,0.,0.));
#707=DIRECTION('',(1.,0.,0.));
#708=DIRECTION('',(0.,-1.,0.));
#709=DIRECTION('',(1.,0.,0.));
#710=DIRECTION('',(0.,-1.,0.));
#711=DIRECTION('',(1.,0.,0.));
#712=DIRECTION('',(0.,1.,0.));
#713=DIRECTION('',(1.,0.,0.));
#714=DIRECTION('',(0.,-1.,0.));
#715=DIRECTION('',(0.,1.,0.));
#716=DIRECTION('',(0.,0.,1.));
#717=DIRECTION('',(0.,0.,-1.));
#718=DIRECTION('',(1.,0.,0.));
#719=DIRECTION('',(0.,0.,-1.));
#720=DIRECTION('',(1.,0.,0.));
#721=DIRECTION('',(0.,0.,1.));
#722=DIRECTION('',(-1.,0.,0.));
#723=DIRECTION('',(0.,0.,1.));
#724=DIRECTION('',(-1.,0.,0.));
#725=DIRECTION('',(0.,1.,0.));
#726=DIRECTION('',(0.,0.,1.));
#727=DIRECTION('',(1.,0.,0.));
#728=DIRECTION('',(0.,0.,-1.));
#729=DIRECTION('',(1.,0.,0.));
#730=DIRECTION('',(0.,0.,1.));
#731=DIRECTION('',(1.,0.,0.));
#732=DIRECTION('',(0.,0.,-1.));
#733=DIRECTION('',(1.,0.,0.));
#734=DIRECTION('',(0.,0.,-1.));
#735=DIRECTION('',(0.,0.,-1.));
#736=DIRECTION('',(1.,0.,0.));
#737=DIRECTION('',(0.,0.,-1.));
#738=DIRECTION('',(0.,0.,-1.));
#739=DIRECTION('',(-1.,0.,0.));
#740=DIRECTION('',(0.,0.,-1.));
#741=DIRECTION('',(1.,0.,0.));
#742=DIRECTION('',(0.,0.,-1.));
#743=DIRECTION('',(1.,0.,0.));
#744=DIRECTION('',(0.,0.,-1.));
#745=DIRECTION('',(0.,1.,0.));
#746=DIRECTION('',(0.,0.,1.));
#747=DIRECTION('',(1.,0.,0.));
#748=DIRECTION('',(0.,0.,-1.));
#749=DIRECTION('',(0.,0.,-1.));
#750=DIRECTION('',(-1.,0.,0.));
#751=DIRECTION('',(0.,0.,-1.));
#752=DIRECTION('',(-1.,0.,0.));
#753=DIRECTION('',(0.,0.,-1.));
#754=DIRECTION('',(0.,1.,0.));
#755=DIRECTION('',(0.,0.,1.));
#756=DIRECTION('',(1.,0.,0.));
#757=DIRECTION('',(0.,0.,-1.));
#758=DIRECTION('',(1.,0.,0.));
#759=DIRECTION('',(0.,0.,-1.));
#760=DIRECTION('',(-1.,0.,0.));
#761=DIRECTION('',(0.,0.,-1.));
#762=DIRECTION('',(0.,0.,-1.));
#763=DIRECTION('',(1.,0.,0.));
#764=DIRECTION('',(0.,0.,-1.));
#765=DIRECTION('',(1.,0.,0.));
#766=DIRECTION('',(0.,0.,1.));
#767=DIRECTION('',(0.,0.,-1.));
#768=DIRECTION('',(-1.,0.,0.));
#769=DIRECTION('',(0.,0.,-1.));
#770=DIRECTION('',(-1.,0.,0.));
#771=DIRECTION('',(1.,0.,0.));
#772=DIRECTION('',(0.,0.,-1.));
#773=DIRECTION('',(0.,-1.,0.));
#774=DIRECTION('',(0.,-1.,0.));
#775=DIRECTION('',(0.,0.,1.));
#776=DIRECTION('',(1.,0.,0.));
#777=DIRECTION('',(0.,1.,0.));
#778=DIRECTION('',(-1.,0.,0.));
#779=DIRECTION('',(0.,0.,1.));
#780=DIRECTION('',(0.,-1.,0.));
#781=DIRECTION('',(1.,1.04237262512252E-16,0.));
#782=DIRECTION('',(-1.04237262512252E-16,1.,0.));
#783=DIRECTION('',(1.04237262512252E-16,-1.,0.));
#784=DIRECTION('',(0.,0.,-1.));
#785=DIRECTION('',(1.04237262512252E-16,-1.,0.));
#786=DIRECTION('',(0.,0.,-1.));
#787=DIRECTION('',(-1.,-1.04237262512252E-16,0.));
#788=DIRECTION('',(1.04237262512252E-16,-1.,0.));
#789=DIRECTION('',(1.04237262512252E-16,-1.,0.));
#790=DIRECTION('',(0.,0.,1.));
#791=DIRECTION('',(1.04237262512252E-16,-1.,0.));
#792=DIRECTION('',(0.,0.,1.));
#793=DIRECTION('',(0.,0.,1.));
#794=DIRECTION('',(1.,0.,0.));
#795=DIRECTION('',(0.,0.,1.));
#796=DIRECTION('',(1.,0.,0.));
#797=DIRECTION('',(0.,0.,1.));
#798=DIRECTION('',(1.,0.,0.));
#799=DIRECTION('',(0.,0.,1.));
#800=DIRECTION('',(1.,0.,0.));
#801=DIRECTION('',(0.,0.,1.));
#802=DIRECTION('',(1.,0.,0.));
#803=DIRECTION('',(0.,0.,1.));
#804=DIRECTION('',(1.,0.,0.));
#805=DIRECTION('',(0.,0.,-1.));
#806=DIRECTION('',(-1.,0.,0.));
#807=DIRECTION('',(0.,1.,0.));
#808=DIRECTION('',(0.,1.,0.));
#809=DIRECTION('',(1.,0.,0.));
#810=DIRECTION('',(0.,0.,-1.));
#811=DIRECTION('',(0.,1.,0.));
#812=DIRECTION('',(0.,0.,-1.));
#813=DIRECTION('',(-1.,0.,0.));
#814=DIRECTION('',(0.,1.,0.));
#815=DIRECTION('',(1.,0.,0.));
#816=DIRECTION('',(0.,0.,-1.));
#817=DIRECTION('',(0.,0.,-1.));
#818=DIRECTION('',(-1.,0.,0.));
#819=DIRECTION('',(0.,-1.,0.));
#820=DIRECTION('',(0.,-1.,0.));
#821=DIRECTION('',(-1.,0.,0.));
#822=DIRECTION('',(0.,0.,1.));
#823=DIRECTION('',(0.,-1.,0.));
#824=DIRECTION('',(0.,0.,-1.));
#825=DIRECTION('',(-1.,0.,0.));
#826=DIRECTION('',(0.,-1.,0.));
#827=DIRECTION('',(-1.,0.,0.));
#828=DIRECTION('',(0.,0.,1.));
#829=DIRECTION('',(1.,0.,0.));
#830=DIRECTION('',(0.,0.,-1.));
#831=DIRECTION('',(0.,-1.,0.));
#832=DIRECTION('',(0.,0.,1.));
#833=DIRECTION('',(1.,0.,0.));
#834=DIRECTION('',(0.,0.,1.));
#835=DIRECTION('',(1.,0.,0.));
#836=DIRECTION('',(0.,-1.,0.));
#837=DIRECTION('',(0.,0.,1.));
#838=DIRECTION('',(1.,0.,0.));
#839=DIRECTION('',(0.,0.,1.));
#840=DIRECTION('',(1.,0.,0.));
#841=DIRECTION('',(0.,-1.,0.));
#842=DIRECTION('',(-1.,0.,0.));
#843=DIRECTION('',(0.,-1.,0.));
#844=DIRECTION('',(1.,0.,0.));
#845=DIRECTION('',(0.,0.,-1.));
#846=DIRECTION('',(0.,-1.,0.));
#847=DIRECTION('',(0.,0.,1.));
#848=DIRECTION('',(1.,0.,0.));
#849=DIRECTION('',(0.,0.,1.));
#850=DIRECTION('',(1.,0.,0.));
#851=DIRECTION('',(0.,-1.,0.));
#852=DIRECTION('',(0.,0.,1.));
#853=DIRECTION('',(1.,0.,0.));
#854=DIRECTION('',(0.,0.,-1.));
#855=DIRECTION('',(-1.,0.,0.));
#856=DIRECTION('',(0.,-1.,0.));
#857=DIRECTION('',(1.,0.,0.));
#858=DIRECTION('',(0.,1.,0.));
#859=DIRECTION('',(0.,0.,-1.));
#860=DIRECTION('',(-1.,0.,0.));
#861=DIRECTION('',(0.,0.,1.));
#862=DIRECTION('',(1.,0.,0.));
#863=DIRECTION('',(0.,0.,-1.));
#864=DIRECTION('',(-1.,0.,0.));
#865=DIRECTION('',(0.,0.,1.));
#866=DIRECTION('',(1.,0.,0.));
#867=CARTESIAN_POINT('',(0.,0.,0.));
#868=CARTESIAN_POINT('',(-9.68640670180321E-5,-0.0139483390375972,0.015));
#869=CARTESIAN_POINT('',(-9.68640670180321E-5,0.0193357943743467,0.015));
#870=CARTESIAN_POINT('',(-0.015882842682302,0.0193357943743467,0.015));
#871=CARTESIAN_POINT('',(0.015689114548266,0.0193357943743467,0.015));
#872=CARTESIAN_POINT('',(-0.015882842682302,-0.0139483390375972,0.015));
#873=CARTESIAN_POINT('',(-0.015882842682302,-0.0472324724495411,0.015));
#874=CARTESIAN_POINT('',(-9.68640670180321E-5,-0.0472324724495411,0.015));
#875=CARTESIAN_POINT('',(-0.012882842682302,-0.0472324724495411,0.015));
#876=CARTESIAN_POINT('',(-0.012882842682302,-0.0139483390375972,0.015));
#877=CARTESIAN_POINT('',(-0.012882842682302,0.0143357943743467,0.015));
#878=CARTESIAN_POINT('',(-9.68640670180321E-5,0.0143357943743467,0.015));
#879=CARTESIAN_POINT('',(0.0126891145482659,0.0143357943743467,0.015));
#880=CARTESIAN_POINT('',(0.0126891145482659,0.0168357943743467,0.015));
#881=CARTESIAN_POINT('',(0.0126891145482659,-0.0472324724495411,0.015));
#882=CARTESIAN_POINT('',(-9.68640670180321E-5,-0.0472324724495411,0.015));
#883=CARTESIAN_POINT('',(0.015689114548266,-0.0472324724495411,0.015));
#884=CARTESIAN_POINT('',(0.015689114548266,-0.0139483390375972,0.015));
#885=CARTESIAN_POINT('',(-9.68640670180321E-5,-0.0422324724495411,0.015));
#886=CARTESIAN_POINT('',(-0.012882842682302,-0.0422324724495411,0.015));
#887=CARTESIAN_POINT('',(-0.012882842682302,-0.0422324724495411,0.013));
#888=CARTESIAN_POINT('',(-0.012882842682302,-0.0422324724495411,0.));
#889=CARTESIAN_POINT('',(-9.68640670180321E-5,-0.0422324724495411,0.013));
#890=CARTESIAN_POINT('',(0.0126891145482659,-0.0422324724495411,0.013));
#891=CARTESIAN_POINT('',(0.0126891145482659,-0.0422324724495411,0.015));
#892=CARTESIAN_POINT('',(0.0126891145482659,-0.0422324724495411,0.));
#893=CARTESIAN_POINT('',(-9.68640670180321E-5,-0.0422324724495411,0.));
#894=CARTESIAN_POINT('',(0.00943998619914055,-0.0422324724495411,0.015));
#895=CARTESIAN_POINT('',(0.00943998619914055,-0.0422324724495411,0.000941473117563874));
#896=CARTESIAN_POINT('',(0.00943998619914055,-0.0422324724495411,0.012018964625895));
#897=CARTESIAN_POINT('',(-9.68640670180321E-5,-0.0422324724495411,0.012018964625895));
#898=CARTESIAN_POINT('',(-0.00831658346578485,-0.0422324724495411,0.012018964625895));
#899=CARTESIAN_POINT('',(-0.00831658346578485,-0.0422324724495411,0.015));
#900=CARTESIAN_POINT('',(-0.00831658346578485,-0.0422324724495411,0.000941473117563874));
#901=CARTESIAN_POINT('',(-9.68640670180321E-5,-0.0422324724495411,0.000941473117563874));
#902=CARTESIAN_POINT('',(-9.68640670180321E-5,-0.0472324724495411,0.015));
#903=CARTESIAN_POINT('',(-9.68640670180321E-5,-0.0472324724495411,0.02));
#904=CARTESIAN_POINT('',(-0.0161928931886408,-0.0472324724495411,0.02));
#905=CARTESIAN_POINT('',(-0.011882842682302,-0.0472324724495411,0.02));
#906=CARTESIAN_POINT('',(-0.0161928931886408,-0.0472324724495411,0.015));
#907=CARTESIAN_POINT('',(-0.0161928931886408,-0.0472324724495411,-0.005));
#908=CARTESIAN_POINT('',(-9.68640670180321E-5,-0.0472324724495411,-0.005));
#909=CARTESIAN_POINT('',(0.0159991650546048,-0.0472324724495411,-0.005));
#910=CARTESIAN_POINT('',(0.0159991650546048,-0.0472324724495411,0.015));
#911=CARTESIAN_POINT('',(0.0159991650546048,-0.0472324724495411,0.02));
#912=CARTESIAN_POINT('',(-9.68640670180321E-5,-0.0472324724495411,0.02));
#913=CARTESIAN_POINT('',(0.0116891145482659,-0.0472324724495411,0.02));
#914=CARTESIAN_POINT('',(0.0116891145482659,-0.0472324724495411,0.02));
#915=CARTESIAN_POINT('',(0.0116891145482659,-0.0472324724495411,0.018));
#916=CARTESIAN_POINT('',(0.0116891145482659,-0.0472324724495411,0.018));
#917=CARTESIAN_POINT('',(0.015689114548266,-0.0472324724495411,0.018));
#918=CARTESIAN_POINT('',(0.015689114548266,-0.0472324724495411,0.02));
#919=CARTESIAN_POINT('',(0.0126891145482659,-0.0472324724495411,0.016));
#920=CARTESIAN_POINT('',(0.0126891145482659,-0.0472324724495411,0.013));
#921=CARTESIAN_POINT('',(-9.68640670180321E-5,-0.0472324724495411,0.013));
#922=CARTESIAN_POINT('',(-0.012882842682302,-0.0472324724495411,0.013));
#923=CARTESIAN_POINT('',(-0.012882842682302,-0.0472324724495411,0.016));
#924=CARTESIAN_POINT('',(-0.015882842682302,-0.0472324724495411,0.02));
#925=CARTESIAN_POINT('',(-0.015882842682302,-0.0472324724495411,0.018));
#926=CARTESIAN_POINT('',(-0.011882842682302,-0.0472324724495411,0.018));
#927=CARTESIAN_POINT('',(-0.011882842682302,-0.0472324724495411,0.018));
#928=CARTESIAN_POINT('',(-0.011882842682302,-0.0472324724495411,0.02));
#929=CARTESIAN_POINT('',(0.000561701366677851,-0.0472324724495411,0.012018964625895));
#930=CARTESIAN_POINT('',(-0.00831658346578485,-0.0472324724495411,0.012018964625895));
#931=CARTESIAN_POINT('',(0.00943998619914055,-0.0472324724495411,0.012018964625895));
#932=CARTESIAN_POINT('',(0.00943998619914055,-0.0472324724495411,0.00648021887172945));
#933=CARTESIAN_POINT('',(0.00943998619914055,-0.0472324724495411,0.000941473117563874));
#934=CARTESIAN_POINT('',(0.000561701366677851,-0.0472324724495411,0.000941473117563874));
#935=CARTESIAN_POINT('',(-0.00831658346578485,-0.0472324724495411,0.000941473117563874));
#936=CARTESIAN_POINT('',(-0.00831658346578485,-0.0472324724495411,0.00648021887172945));
#937=CARTESIAN_POINT('',(-9.68640670180321E-5,0.0143357943743467,0.015));
#938=CARTESIAN_POINT('',(-9.68640670180321E-5,0.0143357943743467,0.));
#939=CARTESIAN_POINT('',(-0.012882842682302,0.0143357943743467,0.));
#940=CARTESIAN_POINT('',(0.0126891145482659,0.0143357943743467,0.));
#941=CARTESIAN_POINT('',(0.0126891145482659,0.0143357943743467,0.015));
#942=CARTESIAN_POINT('',(-0.012882842682302,0.0143357943743467,0.015));
#943=CARTESIAN_POINT('',(-9.68640670180321E-5,0.0143357943743467,0.00604050513356924));
#944=CARTESIAN_POINT('',(0.00609791473500655,0.0143357943743467,0.00604050513356924));
#945=CARTESIAN_POINT('',(-0.00679806816284907,0.0143357943743467,0.00604050513356924));
#946=CARTESIAN_POINT('',(0.00609791473500655,0.0143357943743467,0.015));
#947=CARTESIAN_POINT('',(0.00609791473500655,0.0143357943743467,0.000698065501637757));
#948=CARTESIAN_POINT('',(-9.68640670180321E-5,0.0143357943743467,0.000698065501637757));
#949=CARTESIAN_POINT('',(-0.00679806816284907,0.0143357943743467,0.000698065501637757));
#950=CARTESIAN_POINT('',(-0.00679806816284907,0.0143357943743467,0.015));
#951=CARTESIAN_POINT('',(-9.68640670180321E-5,0.0193357943743467,0.015));
#952=CARTESIAN_POINT('',(-9.68640670180321E-5,0.0193357943743467,-0.005));
#953=CARTESIAN_POINT('',(-0.0161928931886408,0.0193357943743467,-0.005));
#954=CARTESIAN_POINT('',(0.0159991650546048,0.0193357943743467,-0.005));
#955=CARTESIAN_POINT('',(-0.0161928931886408,0.0193357943743467,0.02));
#956=CARTESIAN_POINT('',(-0.0161928931886408,0.0193357943743467,0.02));
#957=CARTESIAN_POINT('',(-9.68640670180321E-5,0.0193357943743467,0.02));
#958=CARTESIAN_POINT('',(-0.011882842682302,0.0193357943743467,0.02));
#959=CARTESIAN_POINT('',(-0.011882842682302,0.0193357943743467,0.02));
#960=CARTESIAN_POINT('',(-0.011882842682302,0.0193357943743467,0.018));
#961=CARTESIAN_POINT('',(-0.011882842682302,0.0193357943743467,0.018));
#962=CARTESIAN_POINT('',(-0.015882842682302,0.0193357943743467,0.018));
#963=CARTESIAN_POINT('',(-0.015882842682302,0.0193357943743467,0.02));
#964=CARTESIAN_POINT('',(0.015689114548266,0.0193357943743467,0.02));
#965=CARTESIAN_POINT('',(0.015689114548266,0.0193357943743467,0.018));
#966=CARTESIAN_POINT('',(0.0116891145482659,0.0193357943743467,0.018));
#967=CARTESIAN_POINT('',(0.0116891145482659,0.0193357943743467,0.018));
#968=CARTESIAN_POINT('',(0.0116891145482659,0.0193357943743467,0.02));
#969=CARTESIAN_POINT('',(0.0116891145482659,0.0193357943743467,0.02));
#970=CARTESIAN_POINT('',(-9.68640670180321E-5,0.0193357943743467,0.02));
#971=CARTESIAN_POINT('',(0.0159991650546048,0.0193357943743467,0.02));
#972=CARTESIAN_POINT('',(0.0159991650546048,0.0193357943743467,-0.005));
#973=CARTESIAN_POINT('',(0.00609791473500655,0.0193357943743467,0.0033692853176035));
#974=CARTESIAN_POINT('',(0.00609791473500655,0.0193357943743467,0.00604050513356924));
#975=CARTESIAN_POINT('',(0.00609791473500655,0.0193357943743467,0.000698065501637757));
#976=CARTESIAN_POINT('',(-0.00035007671392126,0.0193357943743467,0.00604050513356924));
#977=CARTESIAN_POINT('',(-0.00679806816284907,0.0193357943743467,0.00604050513356924));
#978=CARTESIAN_POINT('',(-0.00679806816284907,0.0193357943743467,0.0033692853176035));
#979=CARTESIAN_POINT('',(-0.00679806816284907,0.0193357943743467,0.000698065501637757));
#980=CARTESIAN_POINT('',(-0.00035007671392126,0.0193357943743467,0.000698065501637757));
#981=CARTESIAN_POINT('',(-0.012882842682302,-0.0139483390375972,0.015));
#982=CARTESIAN_POINT('',(-0.012882842682302,-0.0447324724495411,0.013));
#983=CARTESIAN_POINT('',(-0.012882842682302,-0.0139483390375972,0.));
#984=CARTESIAN_POINT('',(-9.68640670180321E-5,-0.0139483390375972,0.));
#985=CARTESIAN_POINT('',(0.0126891145482659,0.0168357943743467,0.));
#986=CARTESIAN_POINT('',(0.0126891145482659,0.0168357943743467,0.015));
#987=CARTESIAN_POINT('',(0.0126891145482659,-0.0447324724495411,0.013));
#988=CARTESIAN_POINT('',(-0.017882842682302,-0.0139483390375972,0.015));
#989=CARTESIAN_POINT('',(-0.017882842682302,-0.0139483390375972,-0.005));
#990=CARTESIAN_POINT('',(-0.017882842682302,0.0176458448806855,-0.005));
#991=CARTESIAN_POINT('',(-0.017882842682302,-0.0455425229558799,-0.005));
#992=CARTESIAN_POINT('',(-0.017882842682302,-0.0455425229558799,0.015));
#993=CARTESIAN_POINT('',(-0.017882842682302,-0.0455425229558799,0.02));
#994=CARTESIAN_POINT('',(-0.017882842682302,-0.0139483390375972,0.02));
#995=CARTESIAN_POINT('',(-0.017882842682302,0.0176458448806855,0.02));
#996=CARTESIAN_POINT('',(-0.017882842682302,0.0176458448806855,-0.005));
#997=CARTESIAN_POINT('',(0.0176891145482659,-0.0139483390375972,-0.005));
#998=CARTESIAN_POINT('',(0.0176891145482659,-0.0139483390375972,-0.005));
#999=CARTESIAN_POINT('',(0.0176891145482659,0.0176458448806855,-0.005));
#1000=CARTESIAN_POINT('',(0.0176891145482659,-0.0455425229558799,-0.005));
#1001=CARTESIAN_POINT('',(0.0176891145482659,0.0176458448806855,0.02));
#1002=CARTESIAN_POINT('',(0.0176891145482659,0.0176458448806855,0.02));
#1003=CARTESIAN_POINT('',(0.0176891145482659,-0.0139483390375972,0.02));
#1004=CARTESIAN_POINT('',(0.0176891145482659,-0.0455425229558799,0.02));
#1005=CARTESIAN_POINT('',(0.0176891145482659,-0.0455425229558799,-0.005));
#1006=CARTESIAN_POINT('',(-9.68640670180321E-5,-0.0139483390375972,-0.005));
#1007=CARTESIAN_POINT('',(-0.0161928931886408,-0.0455425229558799,-0.005));
#1008=CARTESIAN_POINT('',(-0.0161928931886408,0.0176458448806855,-0.005));
#1009=CARTESIAN_POINT('',(0.0159991650546048,0.0176458448806855,-0.005));
#1010=CARTESIAN_POINT('',(0.0159991650546048,-0.0455425229558799,-0.005));
#1011=CARTESIAN_POINT('',(-9.68640670180321E-5,-0.0139483390375972,0.013));
#1012=CARTESIAN_POINT('',(-0.00035007671392126,0.0123357943743467,0.00604050513356924));
#1013=CARTESIAN_POINT('',(-0.00679806816284907,0.0123357943743467,0.00604050513356924));
#1014=CARTESIAN_POINT('',(0.00609791473500655,0.0123357943743467,0.00604050513356924));
#1015=CARTESIAN_POINT('',(0.00609791473500655,0.0123357943743467,0.0033692853176035));
#1016=CARTESIAN_POINT('',(0.00609791473500655,0.0123357943743467,0.000698065501637757));
#1017=CARTESIAN_POINT('',(-0.00035007671392126,0.0123357943743467,0.000698065501637757));
#1018=CARTESIAN_POINT('',(-0.00679806816284907,0.0123357943743467,0.000698065501637757));
#1019=CARTESIAN_POINT('',(-0.00679806816284907,0.0123357943743467,0.0033692853176035));
#1020=CARTESIAN_POINT('',(0.000561701366677851,-0.0402324724495411,0.012018964625895));
#1021=CARTESIAN_POINT('',(0.00943998619914055,-0.0402324724495411,0.012018964625895));
#1022=CARTESIAN_POINT('',(-0.00831658346578485,-0.0402324724495411,0.012018964625895));
#1023=CARTESIAN_POINT('',(-0.00831658346578485,-0.0402324724495411,0.00648021887172945));
#1024=CARTESIAN_POINT('',(-0.00831658346578485,-0.0402324724495411,0.000941473117563874));
#1025=CARTESIAN_POINT('',(0.000561701366677851,-0.0402324724495411,0.000941473117563874));
#1026=CARTESIAN_POINT('',(0.00943998619914055,-0.0402324724495411,0.000941473117563874));
#1027=CARTESIAN_POINT('',(0.00943998619914055,-0.0402324724495411,0.00648021887172945));
#1028=CARTESIAN_POINT('',(0.015689114548266,-0.0139483390375972,0.02));
#1029=CARTESIAN_POINT('',(0.015689114548266,-0.0139483390375972,0.018));
#1030=CARTESIAN_POINT('',(-9.68640670180321E-5,-0.0139483390375972,0.02));
#1031=CARTESIAN_POINT('',(0.0159991650546048,0.0176458448806855,0.02));
#1032=CARTESIAN_POINT('',(0.0116891145482659,-0.0139483390375972,0.02));
#1033=CARTESIAN_POINT('',(0.0159991650546048,-0.0455425229558799,0.02));
#1034=CARTESIAN_POINT('',(0.0116891145482659,-0.0139483390375972,0.018));
#1035=CARTESIAN_POINT('',(0.0116891145482659,-0.0139483390375972,0.018));
#1036=CARTESIAN_POINT('',(0.0116891145482659,-0.0139483390375972,0.0175));
#1037=CARTESIAN_POINT('',(-0.015882842682302,-0.0139483390375972,0.02));
#1038=CARTESIAN_POINT('',(-0.015882842682302,-0.0139483390375972,0.018));
#1039=CARTESIAN_POINT('',(-9.68640670180321E-5,-0.0139483390375972,0.02));
#1040=CARTESIAN_POINT('',(-0.0161928931886408,-0.0455425229558799,0.02));
#1041=CARTESIAN_POINT('',(-0.011882842682302,-0.0139483390375972,0.02));
#1042=CARTESIAN_POINT('',(-0.0161928931886408,0.0176458448806855,0.02));
#1043=CARTESIAN_POINT('',(-0.011882842682302,-0.0139483390375972,0.018));
#1044=CARTESIAN_POINT('',(-0.011882842682302,-0.0139483390375972,0.018));
#1045=CARTESIAN_POINT('',(-0.011882842682302,-0.0139483390375972,0.0175));
#1046=CARTESIAN_POINT('',(-0.0161928931886408,-0.0455425229558799,0.015));
#1047=CARTESIAN_POINT('',(-0.0161928931886408,0.0176458448806855,0.015));
#1048=CARTESIAN_POINT('',(0.0159991650546048,0.0176458448806855,-0.005));
#1049=CARTESIAN_POINT('',(0.0159991650546048,-0.0455425229558799,0.015));
#1050=MECHANICAL_DESIGN_GEOMETRIC_PRESENTATION_REPRESENTATION('',(#651),
#1051);
#1051=(
GEOMETRIC_REPRESENTATION_CONTEXT(3)
GLOBAL_UNCERTAINTY_ASSIGNED_CONTEXT((#1052))
GLOBAL_UNIT_ASSIGNED_CONTEXT((#1055,#1054,#1053))
REPRESENTATION_CONTEXT('Part 2','TOP_LEVEL_ASSEMBLY_PART')
);
#1052=UNCERTAINTY_MEASURE_WITH_UNIT(LENGTH_MEASURE(1.E-8),#1055,
'DISTANCE_ACCURACY_VALUE','Maximum Tolerance applied to model');
#1053=(
NAMED_UNIT(*)
SI_UNIT($,.STERADIAN.)
SOLID_ANGLE_UNIT()
);
#1054=(
NAMED_UNIT(*)
PLANE_ANGLE_UNIT()
SI_UNIT($,.RADIAN.)
);
#1055=(
LENGTH_UNIT()
NAMED_UNIT(*)
SI_UNIT($,.METRE.)
);
#1056=PRODUCT_DEFINITION_SHAPE('','',#1057);
#1057=PRODUCT_DEFINITION('','',#1059,#1058);
#1058=PRODUCT_DEFINITION_CONTEXT('',#1065,'design');
#1059=PRODUCT_DEFINITION_FORMATION_WITH_SPECIFIED_SOURCE('','',#1061,
 .NOT_KNOWN.);
#1060=PRODUCT_RELATED_PRODUCT_CATEGORY('','',(#1061));
#1061=PRODUCT('Part 2','Part 2','Part 2',(#1063));
#1062=PRODUCT_CATEGORY('','');
#1063=PRODUCT_CONTEXT('',#1065,'mechanical');
#1064=APPLICATION_PROTOCOL_DEFINITION('international standard',
'ap242_managed_model_based_3d_engineering',2020,#1065);
#1065=APPLICATION_CONTEXT('managed model based 3d engineering');
ENDSEC;
END-ISO-10303-21;
